<svg width="414" height="86" viewBox="0 0 414 86" fill="none" xmlns="http://www.w3.org/2000/svg">
<path d="M0.515625 52.6719C0.515625 42.8906 7.64062 38 21.8906 38C25.2344 38 28.5781 38.3125 31.9219 38.9375V35.2344C31.9219 30.8281 28.75 28.625 22.4062 28.625C17.0312 28.625 11.0625 29.4062 4.5 30.9688V21.125C11.0625 19.5625 17.0312 18.7812 22.4062 18.7812C37.0312 18.7812 44.3438 24.1875 44.3438 35V68H37.125L32.7188 63.5938C28.4375 66.5312 23.7188 68 18.5625 68C6.53125 68 0.515625 62.8906 0.515625 52.6719ZM31.9219 47.375C28.7969 46.75 25.4531 46.4375 21.8906 46.4375C15.9219 46.4375 12.9375 48.4688 12.9375 52.5312C12.9375 56.9062 15.4375 59.0938 20.4375 59.0938C24.5625 59.0938 28.3906 57.8125 31.9219 55.25V47.375ZM68.5312 0.96875V68H56.1094V0.96875H68.5312ZM92.7188 55.1562C95.8125 56.8438 99.1406 57.6875 102.703 57.6875C110.109 57.6875 113.812 52.4844 113.812 42.0781C113.812 33.2344 109.719 28.8125 101.531 28.8125C98 28.8125 95.0625 29.0312 92.7188 29.4688V55.1562ZM80.2969 20.7969C86.8281 19.4531 93.7344 18.7812 101.016 18.7812C117.734 18.7812 126.094 26.5781 126.094 42.1719C126.094 59.3906 118.312 68 102.75 68C99.4375 68 96.0938 67.2188 92.7188 65.6562V85.8125H80.2969V20.7969ZM135.516 68V0.96875H147.938V25.0625C151.812 20.875 156.766 18.7812 162.797 18.7812C174.453 18.7812 180.281 24.8438 180.281 36.9688V68H167.859V36.9688C167.859 31.5312 165.156 28.8125 159.75 28.8125C155.719 28.8125 151.781 30.4219 147.938 33.6406V68H135.516ZM189.703 52.6719C189.703 42.8906 196.828 38 211.078 38C214.422 38 217.766 38.3125 221.109 38.9375V35.2344C221.109 30.8281 217.938 28.625 211.594 28.625C206.219 28.625 200.25 29.4062 193.688 30.9688V21.125C200.25 19.5625 206.219 18.7812 211.594 18.7812C226.219 18.7812 233.531 24.1875 233.531 35V68H226.312L221.906 63.5938C217.625 66.5312 212.906 68 207.75 68C195.719 68 189.703 62.8906 189.703 52.6719ZM221.109 47.375C217.984 46.75 214.641 46.4375 211.078 46.4375C205.109 46.4375 202.125 48.4688 202.125 52.5312C202.125 56.9062 204.625 59.0938 209.625 59.0938C213.75 59.0938 217.578 57.8125 221.109 55.25V47.375ZM281.625 66.5938C277.562 67.5312 273.344 68 268.969 68C251.469 68 242.719 59.4844 242.719 42.4531C242.719 26.6719 251.469 18.7812 268.969 18.7812C273.344 18.7812 277.562 19.25 281.625 20.1875V30.0312C277.562 29.0938 273.656 28.625 269.906 28.625C260.062 28.625 255.141 33.2344 255.141 42.4531C255.141 52.9219 260.062 58.1562 269.906 58.1562C273.656 58.1562 277.562 57.6875 281.625 56.75V66.5938ZM287.484 52.6719C287.484 42.8906 294.609 38 308.859 38C312.203 38 315.547 38.3125 318.891 38.9375V35.2344C318.891 30.8281 315.719 28.625 309.375 28.625C304 28.625 298.031 29.4062 291.469 30.9688V21.125C298.031 19.5625 304 18.7812 309.375 18.7812C324 18.7812 331.312 24.1875 331.312 35V68H324.094L319.688 63.5938C315.406 66.5312 310.688 68 305.531 68C293.5 68 287.484 62.8906 287.484 52.6719ZM318.891 47.375C315.766 46.75 312.422 46.4375 308.859 46.4375C302.891 46.4375 299.906 48.4688 299.906 52.5312C299.906 56.9062 302.406 59.0938 307.406 59.0938C311.531 59.0938 315.359 57.8125 318.891 55.25V47.375ZM343.078 65.6562V55.3438C348.547 57.5312 354.859 58.625 362.016 58.625C367.359 58.625 370.031 56.9062 370.031 53.4688C370.031 50.1875 368.234 48.5469 364.641 48.5469H355.734C345.734 48.5469 340.734 43.625 340.734 33.7812C340.734 23.4688 348.031 18.3125 362.625 18.3125C368.812 18.3125 374.641 19.25 380.109 21.125V31.4375C374.641 29.25 368.703 28.1562 362.297 28.1562C355.578 28.1562 352.219 29.875 352.219 33.3125C352.219 36.5938 354.172 38.2344 358.078 38.2344H366.047C376.984 38.2344 382.453 43.1562 382.453 53C382.453 63.3125 375.484 68.4688 361.547 68.4688C354.703 68.4688 348.547 67.5312 343.078 65.6562ZM390.469 10.8125H399.656L401.531 18.7812H413.906V28.625H402.891V51.2656C402.891 55.8594 404.875 58.1562 408.844 58.1562H413.906V68H402.844C394.594 68 390.469 63.5781 390.469 54.7344V10.8125Z" fill="#6640E9"/>
</svg>
